HIERARCHY
ROOT Hips
{
	OFFSET 0.000000 0.000000 0.000000
	CHANNELS 6 Xposition Yposition Zposition Xrotation Yrotation Zrotation
	JOINT LeftUpLeg_virtual
	{
		OFFSET 0.000000 0.000000 0.000000
		CHANNELS 3 Xrotation Yrotation Zrotation
		JOINT LeftUpLeg
		{
			OFFSET 13.026900 -6.336304 -1.092800
			CHANNELS 3 Xrotation Yrotation Zrotation
			JOINT LeftLeg
			{
				OFFSET 0.524474 -46.096886 9.782700
				CHANNELS 3 Xrotation Yrotation Zrotation
				JOINT LeftFoot
				{
					OFFSET -0.524474 -53.427422 -12.948200
					CHANNELS 3 Xrotation Yrotation Zrotation
					JOINT LeftToeBase
					{
						OFFSET 0.192200 -14.009700 16.364100
						CHANNELS 3 Xrotation Yrotation Zrotation
						JOINT LeftToe_End
						{
							OFFSET -1.784700 -0.561700 9.474800
							CHANNELS 3 Xrotation Yrotation Zrotation
							End Site
							{
								OFFSET 0 0 0
							}
						}
					}
				}
			}
		}
	}
	JOINT RightUpLeg_virtual
	{
		OFFSET 0.000000 0.000000 0.000000
		CHANNELS 3 Xrotation Yrotation Zrotation
		JOINT RightUpLeg
		{
			OFFSET -12.883000 -6.336304 -1.092800
			CHANNELS 3 Xrotation Yrotation Zrotation
			JOINT RightLeg
			{
				OFFSET -0.524587 -46.096825 9.782800
				CHANNELS 3 Xrotation Yrotation Zrotation
				JOINT RightFoot
				{
					OFFSET 0.524587 -53.427383 -12.948300
					CHANNELS 3 Xrotation Yrotation Zrotation
					JOINT RightToeBase
					{
						OFFSET -0.192200 -14.009700 16.364100
						CHANNELS 3 Xrotation Yrotation Zrotation
						JOINT RightToe_End
						{
							OFFSET 1.784700 -0.561700 9.474800
							CHANNELS 3 Xrotation Yrotation Zrotation
							End Site
							{
								OFFSET 0 0 0
							}
						}
					}
				}
			}
		}
	}
	JOINT Spine_virtual
	{
		OFFSET 0.000000 0.000000 0.000000
		CHANNELS 3 Xrotation Yrotation Zrotation
		JOINT Spine
		{
			OFFSET 0.072000 7.257294 -0.789700
			CHANNELS 3 Xrotation Yrotation Zrotation
			JOINT Spine1
			{
				OFFSET 0.000000 12.508769 -0.658067
				CHANNELS 3 Xrotation Yrotation Zrotation
				JOINT Spine1_split
				{
					OFFSET 0.000000 12.508769 -0.658067
					CHANNELS 3 Xrotation Yrotation Zrotation
					JOINT Spine2
					{
						OFFSET 0.000000 12.508769 -0.658067
						CHANNELS 3 Xrotation Yrotation Zrotation
						JOINT Neck_virtual
						{
							OFFSET 0.000000 0.000000 0.000000
							CHANNELS 3 Xrotation Yrotation Zrotation
							JOINT Neck
							{
								OFFSET 0.000000 14.033295 7.520400
								CHANNELS 3 Xrotation Yrotation Zrotation
								JOINT Head
								{
									OFFSET 0.000000 8.198502 5.703100
									CHANNELS 3 Xrotation Yrotation Zrotation
									JOINT HeadTop_End
									{
										OFFSET 0.000000 17.760803 13.332701
										CHANNELS 3 Xrotation Yrotation Zrotation
										End Site
										{
											OFFSET 0 0 0
										}
									}
								}
							}
						}
						JOINT LeftShoulder_virtual
						{
							OFFSET 0.000000 0.000000 0.000000
							CHANNELS 3 Xrotation Yrotation Zrotation
							JOINT LeftShoulder
							{
								OFFSET 6.292450 5.785301 -0.669000
								CHANNELS 3 Xrotation Yrotation Zrotation
								JOINT LeftShoulder_split
								{
									OFFSET 6.292450 5.785301 -0.669000
									CHANNELS 3 Xrotation Yrotation Zrotation
									JOINT LeftArm
									{
										OFFSET 13.907140 -6.093903 1.965100
										CHANNELS 3 Xrotation Yrotation Zrotation
										JOINT LeftForeArm
										{
											OFFSET 34.140198 0.000000 0.000000
											CHANNELS 3 Xrotation Yrotation Zrotation
											JOINT LeftHand
											{
												OFFSET 40.960209 0.000000 0.000000
												CHANNELS 3 Xrotation Yrotation Zrotation
												End Site
												{
													OFFSET 0 0 0
												}
											}
										}
									}
								}
							}
						}
						JOINT RightShoulder_virtual
						{
							OFFSET 0.000000 0.000000 0.000000
							CHANNELS 3 Xrotation Yrotation Zrotation
							JOINT RightShoulder
							{
								OFFSET -6.292450 5.785301 -0.669000
								CHANNELS 3 Xrotation Yrotation Zrotation
								JOINT RightShoulder_split
								{
									OFFSET -6.292450 5.785301 -0.669000
									CHANNELS 3 Xrotation Yrotation Zrotation
									JOINT RightArm
									{
										OFFSET -13.907140 -6.093903 1.965100
										CHANNELS 3 Xrotation Yrotation Zrotation
										JOINT RightForeArm
										{
											OFFSET -34.140198 0.000000 0.000000
											CHANNELS 3 Xrotation Yrotation Zrotation
											JOINT RightHand
											{
												OFFSET -40.960209 0.000000 0.000000
												CHANNELS 3 Xrotation Yrotation Zrotation
												End Site
												{
													OFFSET 0 0 0
												}
											}
										}
									}
								}
							}
						}
					}
				}
			}
		}
	}
}
MOTION
Frames: 5
Frame Time: 0.03333333
-3.070833 54.681210 76.793648 0.000000 0.000000 0.000000 21.934218 -28.475892 -7.911987 3.988455 0.043733 8.315797 91.404815 -9.910795 -2.765127 10.600157 -0.478509 -16.090510 -0.156537 -0.751491 -2.824228 0.000000 0.000000 0.000000 22.090780 -20.373881 -10.233112 -12.081832 19.370056 -6.789725 65.252916 10.313797 -6.817519 44.249507 3.836002 19.416023 12.211158 -1.939947 1.006180 0.000000 0.000000 0.000000 20.876415 -24.857188 -9.363721 7.262481 1.822094 4.364342 -3.111572 2.307468 1.707012 0.183201 -2.932188 1.425944 0.000000 0.000000 0.000000 -4.232805 2.707541 1.876493 -58.842544 -1.815248 19.197893 16.887959 16.020395 -15.630111 0.000000 0.000000 0.000000 -4.780706 2.624355 1.692696 -19.386862 0.749910 -15.480204 -3.669400 3.331641 -3.408933 10.975488 6.676784 -49.594167 72.352249 -32.222654 38.354596 0.000000 0.000000 0.000000 -5.026355 2.500509 1.837444 -18.461390 0.457097 22.921951 -9.607012 0.161864 -1.003078 5.197473 -8.301438 50.613126 6.871172 33.250208 9.270154 0.000000 0.000000 0.000000 
-2.097970 54.694141 80.463013 0.000000 0.000000 0.000000 23.088754 -30.163953 -8.096555 6.205107 0.520136 7.654686 86.926212 -7.571807 -4.525977 9.910885 1.319755 -16.808209 -0.074216 -0.886483 -2.868795 0.000000 0.000000 0.000000 23.400141 -21.695006 -10.384918 -12.118943 18.673353 -6.638500 64.785301 10.625111 -6.903822 43.063243 4.346896 19.225377 12.425957 -2.098964 0.807901 0.000000 0.000000 0.000000 22.667448 -25.074044 -9.687709 6.851726 1.548313 4.849465 -3.498320 2.057428 2.101108 0.404614 -2.571022 1.247769 0.000000 0.000000 0.000000 -4.464773 2.572960 2.216305 -60.595307 -2.530913 20.190779 17.910745 16.558696 -16.228179 0.000000 0.000000 0.000000 -5.084838 2.439158 2.063055 -19.413129 1.159587 -15.349680 -3.101307 2.996627 -3.773504 11.896466 10.326043 -46.617728 75.135981 -33.884364 38.748889 0.000000 0.000000 0.000000 -5.321493 2.375354 2.119053 -18.388884 -0.906899 22.479182 -8.628419 -0.037316 -0.172014 5.176916 -4.604101 52.750217 -2.145608 37.775980 13.743626 0.000000 0.000000 0.000000 
-1.213380 54.606895 83.985687 0.000000 0.000000 0.000000 24.640377 -31.438063 -7.826941 8.387961 0.386187 6.586103 83.075174 -6.057147 -5.157206 10.465860 1.944885 -18.476855 -1.151536 -1.044725 -2.480169 0.000000 0.000000 0.000000 25.097976 -22.979944 -10.168724 -12.311635 17.442553 -6.875537 64.735884 11.095453 -6.794904 42.739837 5.658279 19.358727 11.933034 -2.203028 0.394201 0.000000 0.000000 0.000000 24.844000 -25.017240 -9.576450 6.352732 1.204388 4.968512 -3.664008 1.818644 2.561936 0.654558 -2.168620 0.997996 0.000000 0.000000 0.000000 -4.445058 2.420576 2.629772 -62.661849 -3.139202 20.503801 18.651693 16.519781 -16.747298 0.000000 0.000000 0.000000 -5.158233 2.287563 2.517983 -19.464750 1.097746 -14.702324 -1.987334 2.476957 -4.206134 13.492716 11.514525 -43.250260 74.382700 -37.496092 37.390037 0.000000 0.000000 0.000000 -5.256695 2.275390 2.475330 -18.455811 -2.020923 22.013592 -7.406685 -0.717055 0.658422 5.632790 -1.047602 55.291126 -8.028620 44.203338 15.890737 0.000000 0.000000 0.000000 
-0.594634 54.401985 87.179756 0.000000 0.000000 0.000000 26.596859 -31.862457 -7.225920 9.979075 -0.456748 5.303913 79.484612 -5.375886 -4.738280 12.119552 1.429760 -20.662224 -1.803590 -1.223412 -1.901121 0.000000 0.000000 0.000000 27.228542 -23.998095 -9.688242 -12.418257 16.069748 -7.282396 64.603276 11.626473 -6.602212 42.911627 7.367542 19.762888 10.872933 -2.237022 -0.090681 0.000000 0.000000 0.000000 27.414431 -24.690417 -9.180894 5.811011 0.894730 4.742407 -3.644717 1.651044 3.031618 0.808995 -1.686904 0.964539 0.000000 0.000000 0.000000 -4.265185 2.301492 3.058967 -64.891209 -3.531868 20.183948 19.102495 15.851966 -17.134660 0.000000 0.000000 0.000000 -5.030735 2.215384 2.976155 -19.538333 0.604153 -13.638861 -1.087164 2.034156 -4.639607 15.272957 10.828667 -39.862388 69.781215 -41.806813 33.703951 0.000000 0.000000 0.000000 -4.882872 2.245463 2.824040 -18.713468 -2.676092 21.678073 -6.346790 -1.488542 1.256110 6.539244 1.627348 56.931058 -9.741867 51.345080 14.891163 0.000000 0.000000 0.000000 
-0.311932 54.063354 89.958115 0.000000 0.000000 0.000000 29.147580 -31.241296 -6.525917 10.877603 -2.165074 3.965884 74.913665 -4.651922 -3.762104 13.459077 0.662845 -22.456036 -1.348970 -1.323924 -1.524578 0.000000 0.000000 0.000000 29.886043 -24.361927 -9.081854 -12.021959 14.788319 -7.629663 63.925612 11.861896 -6.291588 43.079670 8.701402 20.078157 9.539135 -2.192810 -0.435077 0.000000 0.000000 0.000000 30.298764 -24.048958 -8.758454 5.233460 0.667388 4.311883 -3.515303 1.572675 3.437444 0.921772 -1.226804 1.160436 0.000000 0.000000 0.000000 -4.008279 2.222472 3.404748 -67.158737 -3.700496 19.394358 19.408298 14.697718 -17.437150 0.000000 0.000000 0.000000 -4.770705 2.261057 3.337321 -19.599404 -0.082950 -12.355606 -0.789784 1.462911 -5.198332 17.393772 9.081619 -36.971510 62.256075 -45.825139 28.256098 0.000000 0.000000 0.000000 -4.349318 2.265502 3.085316 -19.097069 -2.907390 21.506609 -5.351598 -1.931577 1.288989 7.750081 3.144614 57.121569 -6.125314 58.272469 9.657874 0.000000 0.000000 0.000000 
